<svg xmlns="http://www.w3.org/2000/svg" width="1200" height="800" viewBox="0 0 1200 800">
  <defs>
    <linearGradient id="hbo-notify-bg" x1="0%" y1="0%" x2="100%" y2="100%">
      <stop offset="0%" stop-color="#0F172A"/>
      <stop offset="40%" stop-color="#1D4ED8"/>
      <stop offset="100%" stop-color="#7C3AED"/>
    </linearGradient>
  </defs>
  <rect width="1200" height="800" rx="64" fill="#020617"/>
  <rect x="24" y="24" width="1152" height="752" rx="56" fill="url(#hbo-notify-bg)"/>

  <rect x="160" y="170" width="880" height="360" rx="40" fill="#020617" opacity="0.95"/>
  <rect x="190" y="200" width="320" height="60" rx="30" fill="#0b1120"/>
  <rect x="210" y="215" width="140" height="30" rx="15" fill="#e5e7eb" opacity="0.9"/>
  <rect x="360" y="215" width="120" height="30" rx="15" fill="#22c55e" opacity="0.75"/>

  <rect x="210" y="285" width="260" height="20" rx="10" fill="#e5e7eb" opacity="0.85"/>
  <rect x="210" y="315" width="220" height="18" rx="9" fill="#e5e7eb" opacity="0.6"/>
  <rect x="210" y="343" width="190" height="18" rx="9" fill="#e5e7eb" opacity="0.5"/>

  <rect x="560" y="220" width="360" height="240" rx="32" fill="#020617"/>
  <rect x="590" y="250" width="300" height="40" rx="20" fill="#1d4ed8" opacity="0.85"/>
  <circle cx="620" cy="270" r="10" fill="#22c55e"/>
  <circle cx="650" cy="270" r="10" fill="#facc15"/>
  <circle cx="680" cy="270" r="10" fill="#ef4444"/>

  <rect x="600" y="310" width="220" height="18" rx="9" fill="#e5e7eb" opacity="0.75"/>
  <rect x="600" y="340" width="260" height="18" rx="9" fill="#e5e7eb" opacity="0.55"/>
  <rect x="600" y="370" width="200" height="18" rx="9" fill="#e5e7eb" opacity="0.45"/>

  <rect x="600" y="410" width="160" height="40" rx="20" fill="#22c55e" opacity="0.9"/>
  <rect x="770" y="410" width="120" height="40" rx="20" fill="#0b1120"/>

  <circle cx="1040" cy="160" r="70" fill="#1d4ed8" opacity="0.4"/>
  <circle cx="200" cy="600" r="80" fill="#22c55e" opacity="0.25"/>
  <circle cx="980" cy="640" r="60" fill="#7c3aed" opacity="0.3"/>

  <rect x="360" y="620" width="480" height="46" rx="23" fill="#020617" opacity="0.9"/>
  <rect x="380" y="632" width="190" height="22" rx="11" fill="#e5e7eb" opacity="0.9"/>
  <rect x="585" y="632" width="120" height="22" rx="11" fill="#1d4ed8" opacity="0.85"/>
  <rect x="715" y="632" width="105" height="22" rx="11" fill="#22c55e" opacity="0.85"/>
</svg>

