<svg xmlns="http://www.w3.org/2000/svg" width="1200" height="800" viewBox="0 0 1200 800">
  <defs>
    <linearGradient id="hbo-signup-bg" x1="0%" y1="0%" x2="100%" y2="100%">
      <stop offset="0%" stop-color="#020617"/>
      <stop offset="40%" stop-color="#1d4ed8"/>
      <stop offset="100%" stop-color="#f97316"/>
    </linearGradient>
  </defs>
  <rect width="1200" height="800" rx="64" fill="#020617"/>
  <rect x="24" y="24" width="1152" height="752" rx="56" fill="url(#hbo-signup-bg)" opacity="0.95"/>

  <rect x="170" y="190" width="860" height="360" rx="40" fill="#020617" opacity="0.96"/>
  <rect x="210" y="220" width="320" height="60" rx="30" fill="#0b1120"/>
  <rect x="230" y="238" width="140" height="28" rx="14" fill="#e5e7eb" opacity="0.9"/>
  <rect x="380" y="238" width="120" height="28" rx="14" fill="#f97316" opacity="0.9"/>

  <rect x="230" y="300" width="270" height="20" rx="10" fill="#e5e7eb" opacity="0.85"/>
  <rect x="230" y="332" width="220" height="18" rx="9" fill="#e5e7eb" opacity="0.6"/>
  <rect x="230" y="360" width="190" height="18" rx="9" fill="#e5e7eb" opacity="0.5"/>

  <rect x="560" y="230" width="360" height="250" rx="32" fill="#020617"/>
  <rect x="585" y="255" width="310" height="50" rx="25" fill="#0b1120"/>
  <rect x="605" y="268" width="140" height="26" rx="13" fill="#1d4ed8" opacity="0.9"/>
  <rect x="755" y="268" width="110" height="26" rx="13" fill="#f97316" opacity="0.9"/>

  <rect x="585" y="320" width="260" height="18" rx="9" fill="#e5e7eb" opacity="0.7"/>
  <rect x="585" y="350" width="220" height="18" rx="9" fill="#e5e7eb" opacity="0.55"/>
  <rect x="585" y="380" width="240" height="18" rx="9" fill="#e5e7eb" opacity="0.45"/>

  <rect x="585" y="420" width="200" height="44" rx="22" fill="#22c55e" opacity="0.95"/>
  <rect x="795" y="420" width="80" height="44" rx="22" fill="#0b1120"/>

  <circle cx="1040" cy="170" r="70" fill="#1d4ed8" opacity="0.35"/>
  <circle cx="210" cy="620" r="80" fill="#f97316" opacity="0.3"/>
  <circle cx="960" cy="650" r="60" fill="#22c55e" opacity="0.3"/>

  <rect x="360" y="620" width="480" height="46" rx="23" fill="#020617" opacity="0.9"/>
  <rect x="380" y="632" width="200" height="22" rx="11" fill="#e5e7eb" opacity="0.9"/>
  <rect x="595" y="632" width="120" height="22" rx="11" fill="#1d4ed8" opacity="0.85"/>
  <rect x="725" y="632" width="95" height="22" rx="11" fill="#f97316" opacity="0.85"/>
</svg>

