<svg xmlns="http://www.w3.org/2000/svg" width="1200" height="800" viewBox="0 0 1200 800">
  <defs>
    <linearGradient id="sportal-bg" x1="0%" y1="0%" x2="100%" y2="100%">
      <stop offset="0%" stop-color="#020617"/>
      <stop offset="40%" stop-color="#16a34a"/>
      <stop offset="100%" stop-color="#22c55e"/>
    </linearGradient>
  </defs>
  <rect width="1200" height="800" rx="64" fill="#020617"/>
  <rect x="24" y="24" width="1152" height="752" rx="56" fill="url(#sportal-bg)" opacity="0.95"/>

  <rect x="160" y="180" width="880" height="380" rx="40" fill="#020617" opacity="0.96"/>
  <rect x="200" y="210" width="300" height="40" rx="20" fill="#0b1120"/>
  <circle cx="225" cy="230" r="7" fill="#22c55e"/>
  <circle cx="248" cy="230" r="7" fill="#facc15"/>
  <circle cx="271" cy="230" r="7" fill="#ef4444"/>

  <rect x="220" y="270" width="260" height="24" rx="12" fill="#e5e7eb" opacity="0.9"/>
  <rect x="220" y="306" width="220" height="18" rx="9" fill="#e5e7eb" opacity="0.6"/>
  <rect x="220" y="334" width="190" height="18" rx="9" fill="#e5e7eb" opacity="0.5"/>

  <rect x="540" y="220" width="380" height="260" rx="32" fill="#020617"/>
  <rect x="560" y="240" width="340" height="60" rx="30" fill="#0b1120"/>

  <rect x="580" y="260" width="80" height="28" rx="14" fill="#22c55e" opacity="0.9"/>
  <rect x="670" y="260" width="80" height="28" rx="14" fill="#facc15" opacity="0.9"/>
  <rect x="760" y="260" width="80" height="28" rx="14" fill="#22c55e" opacity="0.9"/>

  <rect x="560" y="320" width="260" height="18" rx="9" fill="#e5e7eb" opacity="0.7"/>
  <rect x="560" y="350" width="220" height="18" rx="9" fill="#e5e7eb" opacity="0.55"/>
  <rect x="560" y="380" width="240" height="18" rx="9" fill="#e5e7eb" opacity="0.45"/>

  <circle cx="320" cy="430" r="70" fill="#16a34a" opacity="0.25"/>
  <circle cx="880" cy="430" r="90" fill="#22c55e" opacity="0.22"/>

  <rect x="220" y="430" width="280" height="110" rx="28" fill="#020617" opacity="0.96"/>
  <rect x="240" y="452" width="200" height="20" rx="10" fill="#e5e7eb" opacity="0.85"/>
  <rect x="240" y="482" width="160" height="18" rx="9" fill="#e5e7eb" opacity="0.6"/>

  <circle cx="1040" cy="170" r="70" fill="#22c55e" opacity="0.35"/>
  <circle cx="210" cy="620" r="80" fill="#16a34a" opacity="0.3"/>
  <circle cx="970" cy="650" r="60" fill="#facc15" opacity="0.3"/>

  <rect x="360" y="620" width="480" height="46" rx="23" fill="#020617" opacity="0.9"/>
  <rect x="380" y="632" width="220" height="22" rx="11" fill="#e5e7eb" opacity="0.9"/>
  <rect x="610" y="632" width="110" height="22" rx="11" fill="#22c55e" opacity="0.85"/>
  <rect x="730" y="632" width="90" height="22" rx="11" fill="#16a34a" opacity="0.85"/>
</svg>

