<svg xmlns="http://www.w3.org/2000/svg" width="1200" height="800" viewBox="0 0 1200 800">
  <defs>
    <linearGradient id="vlm-bg" x1="0%" y1="0%" x2="100%" y2="100%">
      <stop offset="0%" stop-color="#020617"/>
      <stop offset="50%" stop-color="#22c55e"/>
      <stop offset="100%" stop-color="#06b6d4"/>
    </linearGradient>
  </defs>
  <rect width="1200" height="800" rx="64" fill="#020617"/>
  <rect x="24" y="24" width="1152" height="752" rx="56" fill="url(#vlm-bg)" opacity="0.9"/>

  <rect x="150" y="170" width="900" height="390" rx="40" fill="#020617" opacity="0.95"/>
  <rect x="190" y="200" width="280" height="40" rx="20" fill="#0b1120"/>
  <circle cx="210" cy="220" r="7" fill="#22c55e"/>
  <circle cx="235" cy="220" r="7" fill="#06b6d4"/>
  <circle cx="260" cy="220" r="7" fill="#eab308"/>

  <rect x="210" y="260" width="260" height="26" rx="13" fill="#e5e7eb" opacity="0.9"/>
  <rect x="210" y="300" width="220" height="18" rx="9" fill="#e5e7eb" opacity="0.55"/>
  <rect x="210" y="328" width="190" height="18" rx="9" fill="#e5e7eb" opacity="0.45"/>

  <rect x="540" y="230" width="360" height="250" rx="32" fill="#020617"/>
  <rect x="560" y="250" width="320" height="60" rx="30" fill="#0b1120"/>
  <rect x="580" y="265" width="160" height="30" rx="15" fill="#22c55e" opacity="0.9"/>
  <rect x="750" y="265" width="110" height="30" rx="15" fill="#06b6d4" opacity="0.8"/>

  <rect x="560" y="330" width="260" height="18" rx="9" fill="#e5e7eb" opacity="0.7"/>
  <rect x="560" y="360" width="220" height="18" rx="9" fill="#e5e7eb" opacity="0.55"/>
  <rect x="560" y="390" width="240" height="18" rx="9" fill="#e5e7eb" opacity="0.45"/>

  <rect x="190" y="390" width="280" height="150" rx="28" fill="#020617" opacity="0.95"/>
  <rect x="210" y="410" width="80" height="80" rx="24" fill="#22c55e" opacity="0.9"/>
  <rect x="305" y="410" width="80" height="80" rx="24" fill="#06b6d4" opacity="0.9"/>
  <rect x="400" y="410" width="80" height="80" rx="24" fill="#eab308" opacity="0.9"/>

  <circle cx="1020" cy="160" r="70" fill="#22c55e" opacity="0.35"/>
  <circle cx="210" cy="620" r="80" fill="#06b6d4" opacity="0.35"/>
  <circle cx="970" cy="650" r="60" fill="#eab308" opacity="0.3"/>

  <rect x="360" y="620" width="480" height="46" rx="23" fill="#020617" opacity="0.9"/>
  <rect x="380" y="632" width="200" height="22" rx="11" fill="#e5e7eb" opacity="0.9"/>
  <rect x="595" y="632" width="120" height="22" rx="11" fill="#22c55e" opacity="0.85"/>
  <rect x="725" y="632" width="95" height="22" rx="11" fill="#06b6d4" opacity="0.85"/>
</svg>

