<svg xmlns="http://www.w3.org/2000/svg" width="1200" height="800" viewBox="0 0 1200 800">
  <defs>
    <linearGradient id="zunzun-bg" x1="0%" y1="0%" x2="100%" y2="100%">
      <stop offset="0%" stop-color="#00E5FF"/>
      <stop offset="50%" stop-color="#7C3AED"/>
      <stop offset="100%" stop-color="#F97316"/>
    </linearGradient>
  </defs>
  <rect width="1200" height="800" rx="64" fill="#050509"/>
  <rect x="24" y="24" width="1152" height="752" rx="56" fill="#050509"/>
  <rect x="52" y="52" width="1096" height="696" rx="48" fill="url(#zunzun-bg)" opacity="0.6"/>

  <rect x="160" y="160" width="880" height="420" rx="36" fill="#020617" opacity="0.9"/>
  <rect x="190" y="190" width="240" height="40" rx="20" fill="#0f172a"/>
  <circle cx="215" cy="210" r="6" fill="#22d3ee"/>
  <circle cx="235" cy="210" r="6" fill="#a855f7"/>
  <circle cx="255" cy="210" r="6" fill="#f97316"/>

  <rect x="220" y="250" width="280" height="32" rx="16" fill="#e5e7eb" opacity="0.16"/>
  <rect x="220" y="296" width="220" height="18" rx="9" fill="#e5e7eb" opacity="0.12"/>
  <rect x="220" y="326" width="180" height="18" rx="9" fill="#e5e7eb" opacity="0.12"/>

  <rect x="540" y="230" width="380" height="260" rx="28" fill="#020617"/>
  <rect x="560" y="250" width="340" height="80" rx="20" fill="#0b1120"/>
  <rect x="580" y="270" width="140" height="40" rx="20" fill="#22d3ee" opacity="0.4"/>
  <rect x="735" y="270" width="140" height="40" rx="20" fill="#a855f7" opacity="0.4"/>

  <rect x="580" y="360" width="280" height="18" rx="9" fill="#e5e7eb" opacity="0.16"/>
  <rect x="580" y="390" width="220" height="18" rx="9" fill="#e5e7eb" opacity="0.14"/>
  <rect x="580" y="420" width="260" height="18" rx="9" fill="#e5e7eb" opacity="0.12"/>

  <circle cx="1040" cy="150" r="80" fill="#22d3ee" opacity="0.2"/>
  <circle cx="190" cy="630" r="70" fill="#a855f7" opacity="0.22"/>
  <circle cx="1000" cy="640" r="60" fill="#f97316" opacity="0.18"/>

  <rect x="360" y="630" width="480" height="40" rx="20" fill="#020617" opacity="0.9"/>
  <rect x="380" y="640" width="180" height="20" rx="10" fill="#e5e7eb" opacity="0.7"/>
  <rect x="580" y="640" width="140" height="20" rx="10" fill="#22d3ee" opacity="0.6"/>
  <rect x="730" y="640" width="90" height="20" rx="10" fill="#a855f7" opacity="0.6"/>
</svg>

